<svg width="42" height="42" viewBox="0 0 42 42" fill="none" xmlns="http://www.w3.org/2000/svg">
<g filter="url(#filter0_di_13_14305)">
<rect x="19.75" y="17.5605" width="15" height="4.87805" rx="2.43902" fill="#949494"/>
<rect x="7.25" y="17.5605" width="11.25" height="4.87805" rx="2.43902" fill="#949494"/>
<rect x="30.375" y="23.415" width="10.625" height="4.87805" rx="2.43902" fill="#949494"/>
<rect x="30.375" y="29.2686" width="10.625" height="4.87805" rx="2.43902" fill="#949494"/>
<rect x="7.25" width="10.9375" height="4.87805" rx="2.43902" fill="#949494"/>
<rect x="19.4375" width="10.9375" height="4.87805" rx="2.43902" fill="#949494"/>
<rect x="20.6875" y="5.85352" width="10.9375" height="4.87805" rx="2.43902" fill="#949494"/>
<rect x="34.75" y="40" width="10.9375" height="4.87805" rx="2.43902" transform="rotate(180 34.75 40)" fill="#949494"/>
<rect x="22.5625" y="40" width="10.9375" height="4.87805" rx="2.43902" transform="rotate(180 22.5625 40)" fill="#949494"/>
<rect x="21" y="34.1465" width="10.625" height="4.87805" rx="2.43902" transform="rotate(180 21 34.1465)" fill="#949494"/>
<rect x="1" y="5.85352" width="10.9375" height="4.87805" rx="2.43902" fill="#949494"/>
<rect x="1" y="11.708" width="10.9375" height="4.87805" rx="2.43902" fill="#949494"/>
</g>
<defs>
<filter id="filter0_di_13_14305" x="0" y="0" width="42" height="42" filterUnits="userSpaceOnUse" color-interpolation-filters="sRGB">
<feFlood flood-opacity="0" result="BackgroundImageFix"/>
<feColorMatrix in="SourceAlpha" type="matrix" values="0 0 0 0 0 0 0 0 0 0 0 0 0 0 0 0 0 0 127 0" result="hardAlpha"/>
<feOffset dy="1"/>
<feGaussianBlur stdDeviation="0.5"/>
<feComposite in2="hardAlpha" operator="out"/>
<feColorMatrix type="matrix" values="0 0 0 0 1 0 0 0 0 1 0 0 0 0 1 0 0 0 0.8 0"/>
<feBlend mode="normal" in2="BackgroundImageFix" result="effect1_dropShadow_13_14305"/>
<feBlend mode="normal" in="SourceGraphic" in2="effect1_dropShadow_13_14305" result="shape"/>
<feColorMatrix in="SourceAlpha" type="matrix" values="0 0 0 0 0 0 0 0 0 0 0 0 0 0 0 0 0 0 127 0" result="hardAlpha"/>
<feOffset dy="1"/>
<feGaussianBlur stdDeviation="1"/>
<feComposite in2="hardAlpha" operator="arithmetic" k2="-1" k3="1"/>
<feColorMatrix type="matrix" values="0 0 0 0 0 0 0 0 0 0 0 0 0 0 0 0 0 0 0.2 0"/>
<feBlend mode="normal" in2="shape" result="effect2_innerShadow_13_14305"/>
</filter>
</defs>
</svg>
