<svg width="192" height="192" viewBox="0 0 192 192" fill="none" xmlns="http://www.w3.org/2000/svg">
<g clip-path="url(#clip0_12_400)">
<g filter="url(#filter0_iii_12_400)">
<path d="M5.75009 89.6405C10.5969 15.6921 27.485 0.88159 101.433 5.72842C175.382 10.5752 190.192 27.4634 185.345 101.412C180.498 175.36 163.61 190.171 89.662 185.324C15.7137 180.477 0.903256 163.589 5.75009 89.6405Z" fill="url(#paint0_linear_12_400)"/>
<path d="M5.75009 89.6414C10.5969 15.693 27.485 0.882566 101.433 5.72939C175.382 10.5762 190.192 27.4643 185.345 101.413C180.498 175.361 163.61 190.172 89.662 185.325C15.7137 180.478 0.903257 163.59 5.75009 89.6414Z" fill="black" fill-opacity="0.7"/>
</g>
<path d="M101.188 9.47234C119.59 10.6785 134.057 12.6222 145.372 15.9267C156.645 19.219 164.563 23.7966 170.118 30.1313C175.674 36.466 179.179 44.914 180.971 56.5206C182.77 68.1703 182.809 82.7669 181.603 101.168C180.397 119.57 178.453 134.037 175.149 145.352C171.857 156.626 167.279 164.543 160.944 170.099C154.61 175.654 146.162 179.16 134.556 180.953C122.906 182.752 108.309 182.79 89.9073 181.584C71.5056 180.377 57.0382 178.435 45.723 175.13C34.4499 171.838 26.5324 167.259 20.9771 160.925C15.4217 154.59 11.9167 146.143 10.124 134.536C8.32476 122.886 8.28596 108.289 9.49207 89.8875C10.6982 71.4861 12.642 57.0195 15.9464 45.7043C19.2386 34.431 23.8162 26.5128 30.151 20.9573C36.4857 15.402 44.9331 11.897 56.5394 10.1043C68.1891 8.30503 82.7864 8.26623 101.188 9.47234Z" stroke="url(#paint1_linear_12_400)" stroke-opacity="0.05" stroke-width="7.5"/>
<path d="M101.188 9.47234C119.59 10.6785 134.057 12.6222 145.372 15.9267C156.645 19.219 164.563 23.7966 170.118 30.1313C175.674 36.466 179.179 44.914 180.971 56.5206C182.77 68.1703 182.809 82.7669 181.603 101.168C180.397 119.57 178.453 134.037 175.149 145.352C171.857 156.626 167.279 164.543 160.944 170.099C154.61 175.654 146.162 179.16 134.556 180.953C122.906 182.752 108.309 182.79 89.9073 181.584C71.5056 180.377 57.0382 178.435 45.723 175.13C34.4499 171.838 26.5324 167.259 20.9771 160.925C15.4217 154.59 11.9167 146.143 10.124 134.536C8.32476 122.886 8.28596 108.289 9.49207 89.8875C10.6982 71.4861 12.642 57.0195 15.9464 45.7043C19.2386 34.431 23.8162 26.5128 30.151 20.9573C36.4857 15.402 44.9331 11.897 56.5394 10.1043C68.1891 8.30503 82.7864 8.26623 101.188 9.47234Z" stroke="url(#paint2_linear_12_400)" stroke-opacity="0.05" stroke-width="7.5"/>
<path d="M101.188 9.47234C119.59 10.6785 134.057 12.6222 145.372 15.9267C156.645 19.219 164.563 23.7966 170.118 30.1313C175.674 36.466 179.179 44.914 180.971 56.5206C182.77 68.1703 182.809 82.7669 181.603 101.168C180.397 119.57 178.453 134.037 175.149 145.352C171.857 156.626 167.279 164.543 160.944 170.099C154.61 175.654 146.162 179.16 134.556 180.953C122.906 182.752 108.309 182.79 89.9073 181.584C71.5056 180.377 57.0382 178.435 45.723 175.13C34.4499 171.838 26.5324 167.259 20.9771 160.925C15.4217 154.59 11.9167 146.143 10.124 134.536C8.32476 122.886 8.28596 108.289 9.49207 89.8875C10.6982 71.4861 12.642 57.0195 15.9464 45.7043C19.2386 34.431 23.8162 26.5128 30.151 20.9573C36.4857 15.402 44.9331 11.897 56.5394 10.1043C68.1891 8.30503 82.7864 8.26623 101.188 9.47234Z" stroke="url(#paint3_linear_12_400)" stroke-width="7.5"/>
<g clip-path="url(#clip1_12_400)">
<g opacity="0.23" filter="url(#filter1_f_12_400)">
<path d="M40.7632 101.026L58.4838 111.519L105.088 140.068L155.368 153.338L114.741 173.11L31.6495 159.002L40.7632 101.026Z" fill="#F29B43"/>
</g>
<g opacity="0.1" filter="url(#filter2_f_12_400)">
<path d="M5.19854 146.154L97.3129 143.029L126.608 172.731L103.065 181.337L41.5387 174.85L5.19854 146.154Z" fill="#F29B44"/>
</g>
<g opacity="0.23" filter="url(#filter3_f_12_400)">
<path d="M45.8067 20.6951L137.924 18.33L167.029 48.2742L143.436 56.69L81.9595 49.693L45.8067 20.6951Z" fill="#EEAA22"/>
</g>
<g opacity="0.1" filter="url(#filter4_f_12_400)">
<path d="M61.8951 16.4532L154.009 13.3314L183.304 43.0335L159.761 51.6398L98.235 45.1526L61.8951 16.4532Z" fill="#EEAA22"/>
</g>
</g>
<g filter="url(#filter5_iii_12_400)">
<rect x="92.5015" y="88.4836" width="41.9954" height="13.6571" rx="6.82854" transform="rotate(3.75 92.5015 88.4836)" fill="#E18200"/>
<rect x="57.5815" y="86.1946" width="31.4966" height="13.6571" rx="6.82854" transform="rotate(3.75 57.5815 86.1946)" fill="#E18200"/>
<rect x="121.115" y="106.782" width="29.7468" height="13.6571" rx="6.82854" transform="rotate(3.75 121.115 106.782)" fill="#E28100"/>
<rect x="120.043" y="123.135" width="29.7468" height="13.6571" rx="6.82854" transform="rotate(3.75 120.043 123.135)" fill="#C67000"/>
<rect x="60.7964" y="37.1353" width="30.6217" height="13.6571" rx="6.82854" transform="rotate(3.75 60.7964 37.1353)" fill="#FFAB27"/>
<rect x="94.8452" y="39.3667" width="30.6217" height="13.6571" rx="6.82854" transform="rotate(3.75 94.8452 39.3667)" fill="#FFAB27"/>
<rect x="97.2651" y="55.949" width="30.6217" height="13.6571" rx="6.82854" transform="rotate(3.75 97.2651 55.949)" fill="#FFAB27"/>
<rect x="130.299" y="153.918" width="30.6217" height="13.6571" rx="6.82854" transform="rotate(-176.25 130.299 153.918)" fill="#C86F00"/>
<rect x="96.252" y="151.686" width="30.6217" height="13.6571" rx="6.82854" transform="rotate(-176.25 96.252 151.686)" fill="#C86F00"/>
<rect x="92.957" y="135.048" width="29.7468" height="13.6571" rx="6.82854" transform="rotate(-176.25 92.957 135.048)" fill="#C86F00"/>
<rect x="42.2632" y="52.3435" width="30.6217" height="13.6571" rx="6.82854" transform="rotate(3.75 42.2632 52.3435)" fill="#FFAB27"/>
<rect x="41.1929" y="68.6973" width="30.6217" height="13.6571" rx="6.82854" transform="rotate(3.75 41.1929 68.6973)" fill="#E18200"/>
</g>
</g>
<defs>
<filter id="filter0_iii_12_400" x="4.9165" y="-4.70498" width="181.262" height="200.463" filterUnits="userSpaceOnUse" color-interpolation-filters="sRGB">
<feFlood flood-opacity="0" result="BackgroundImageFix"/>
<feBlend mode="normal" in="SourceGraphic" in2="BackgroundImageFix" result="shape"/>
<feColorMatrix in="SourceAlpha" type="matrix" values="0 0 0 0 0 0 0 0 0 0 0 0 0 0 0 0 0 0 127 0" result="hardAlpha"/>
<feOffset dy="3.4272"/>
<feGaussianBlur stdDeviation="4.2864"/>
<feComposite in2="hardAlpha" operator="arithmetic" k2="-1" k3="1"/>
<feColorMatrix type="matrix" values="0 0 0 0 0.219608 0 0 0 0 0.206536 0 0 0 0 0.188235 0 0 0 1 0"/>
<feBlend mode="normal" in2="shape" result="effect1_innerShadow_12_400"/>
<feColorMatrix in="SourceAlpha" type="matrix" values="0 0 0 0 0 0 0 0 0 0 0 0 0 0 0 0 0 0 127 0" result="hardAlpha"/>
<feOffset dy="9.6"/>
<feGaussianBlur stdDeviation="7.2"/>
<feComposite in2="hardAlpha" operator="arithmetic" k2="-1" k3="1"/>
<feColorMatrix type="matrix" values="0 0 0 0 1 0 0 0 0 0.547713 0 0 0 0 0.321569 0 0 0 0.6 0"/>
<feBlend mode="normal" in2="effect1_innerShadow_12_400" result="effect2_innerShadow_12_400"/>
<feColorMatrix in="SourceAlpha" type="matrix" values="0 0 0 0 0 0 0 0 0 0 0 0 0 0 0 0 0 0 127 0" result="hardAlpha"/>
<feOffset dy="-9.6"/>
<feGaussianBlur stdDeviation="4.8"/>
<feComposite in2="hardAlpha" operator="arithmetic" k2="-1" k3="1"/>
<feColorMatrix type="matrix" values="0 0 0 0 0.933333 0 0 0 0 0.547058 0 0 0 0 0.160784 0 0 0 0.5 0"/>
<feBlend mode="normal" in2="effect2_innerShadow_12_400" result="effect3_innerShadow_12_400"/>
</filter>
<filter id="filter1_f_12_400" x="-30.7506" y="38.6256" width="248.519" height="196.885" filterUnits="userSpaceOnUse" color-interpolation-filters="sRGB">
<feFlood flood-opacity="0" result="BackgroundImageFix"/>
<feBlend mode="normal" in="SourceGraphic" in2="BackgroundImageFix" result="shape"/>
<feGaussianBlur stdDeviation="31.2" result="effect1_foregroundBlur_12_400"/>
</filter>
<filter id="filter2_f_12_400" x="-57.2013" y="80.6286" width="246.209" height="163.108" filterUnits="userSpaceOnUse" color-interpolation-filters="sRGB">
<feFlood flood-opacity="0" result="BackgroundImageFix"/>
<feBlend mode="normal" in="SourceGraphic" in2="BackgroundImageFix" result="shape"/>
<feGaussianBlur stdDeviation="31.2" result="effect1_foregroundBlur_12_400"/>
</filter>
<filter id="filter3_f_12_400" x="-16.5934" y="-44.0702" width="246.022" height="163.16" filterUnits="userSpaceOnUse" color-interpolation-filters="sRGB">
<feFlood flood-opacity="0" result="BackgroundImageFix"/>
<feBlend mode="normal" in="SourceGraphic" in2="BackgroundImageFix" result="shape"/>
<feGaussianBlur stdDeviation="31.2" result="effect1_foregroundBlur_12_400"/>
</filter>
<filter id="filter4_f_12_400" x="-0.504982" y="-49.0685" width="246.209" height="163.108" filterUnits="userSpaceOnUse" color-interpolation-filters="sRGB">
<feFlood flood-opacity="0" result="BackgroundImageFix"/>
<feBlend mode="normal" in="SourceGraphic" in2="BackgroundImageFix" result="shape"/>
<feGaussianBlur stdDeviation="31.2" result="effect1_foregroundBlur_12_400"/>
</filter>
<filter id="filter5_iii_12_400" x="40.7314" y="36.6923" width="109.635" height="117.669" filterUnits="userSpaceOnUse" color-interpolation-filters="sRGB">
<feFlood flood-opacity="0" result="BackgroundImageFix"/>
<feBlend mode="normal" in="SourceGraphic" in2="BackgroundImageFix" result="shape"/>
<feColorMatrix in="SourceAlpha" type="matrix" values="0 0 0 0 0 0 0 0 0 0 0 0 0 0 0 0 0 0 127 0" result="hardAlpha"/>
<feOffset dy="0.874611"/>
<feGaussianBlur stdDeviation="2.7451"/>
<feComposite in2="hardAlpha" operator="arithmetic" k2="-1" k3="1"/>
<feColorMatrix type="matrix" values="0 0 0 0 1 0 0 0 0 0.7 0 0 0 0 0.4 0 0 0 1 0"/>
<feBlend mode="normal" in2="shape" result="effect1_innerShadow_12_400"/>
<feColorMatrix in="SourceAlpha" type="matrix" values="0 0 0 0 0 0 0 0 0 0 0 0 0 0 0 0 0 0 127 0" result="hardAlpha"/>
<feOffset dy="-0.874611"/>
<feGaussianBlur stdDeviation="0.437305"/>
<feComposite in2="hardAlpha" operator="arithmetic" k2="-1" k3="1"/>
<feColorMatrix type="matrix" values="0 0 0 0 0 0 0 0 0 0 0 0 0 0 0 0 0 0 0.05 0"/>
<feBlend mode="normal" in2="effect1_innerShadow_12_400" result="effect2_innerShadow_12_400"/>
<feColorMatrix in="SourceAlpha" type="matrix" values="0 0 0 0 0 0 0 0 0 0 0 0 0 0 0 0 0 0 127 0" result="hardAlpha"/>
<feOffset dy="0.874611"/>
<feGaussianBlur stdDeviation="0.437305"/>
<feComposite in2="hardAlpha" operator="arithmetic" k2="-1" k3="1"/>
<feColorMatrix type="matrix" values="0 0 0 0 1 0 0 0 0 1 0 0 0 0 1 0 0 0 0.05 0"/>
<feBlend mode="normal" in2="effect2_innerShadow_12_400" result="effect3_innerShadow_12_400"/>
</filter>
<linearGradient id="paint0_linear_12_400" x1="149.388" y1="28.3567" x2="105.3" y2="96.8552" gradientUnits="userSpaceOnUse">
<stop stop-color="#363636"/>
<stop offset="1" stop-color="#141414"/>
</linearGradient>
<linearGradient id="paint1_linear_12_400" x1="106.479" y1="15.2341" x2="87.4391" y2="155.103" gradientUnits="userSpaceOnUse">
<stop stop-color="white"/>
<stop offset="1" stop-color="white" stop-opacity="0"/>
</linearGradient>
<linearGradient id="paint2_linear_12_400" x1="106.479" y1="15.2341" x2="87.4391" y2="155.103" gradientUnits="userSpaceOnUse">
<stop stop-color="white"/>
<stop offset="1" stop-color="white" stop-opacity="0"/>
</linearGradient>
<linearGradient id="paint3_linear_12_400" x1="107.492" y1="7.75733" x2="83.6014" y2="183.299" gradientUnits="userSpaceOnUse">
<stop stop-color="#FFC552"/>
<stop offset="0.274" stop-color="#EEAC43"/>
<stop offset="0.63" stop-color="#DB840B"/>
<stop offset="1" stop-color="#F15B29"/>
</linearGradient>
<clipPath id="clip0_12_400">
<rect width="180" height="180" fill="white" transform="translate(11.7725) rotate(3.75)"/>
</clipPath>
<clipPath id="clip1_12_400">
<rect x="14.5029" y="4.18701" width="170.981" height="170.982" rx="48" transform="rotate(3.75 14.5029 4.18701)" fill="white"/>
</clipPath>
</defs>
</svg>
