<svg width="459" height="128" viewBox="0 0 459 128" fill="none" xmlns="http://www.w3.org/2000/svg">
<g filter="url(#filter0_iii_3160_58826)">
<rect x="60" y="56.1953" width="48" height="15.6098" rx="7.80488" fill="#E18200"/>
<rect x="20" y="56.1953" width="36" height="15.6098" rx="7.80488" fill="#E18200"/>
<rect x="94" y="74.9277" width="34" height="15.6098" rx="7.80488" fill="#E28100"/>
<rect x="94" y="93.6582" width="34" height="15.6098" rx="7.80488" fill="#C67000"/>
<rect x="20" width="35" height="15.6098" rx="7.80488" fill="#FFAB27"/>
<rect x="59" width="35" height="15.6098" rx="7.80488" fill="#FFAB27"/>
<rect x="63" y="18.7324" width="35" height="15.6098" rx="7.80488" fill="#FFAB27"/>
<rect x="108" y="128" width="35" height="15.6098" rx="7.80488" transform="rotate(180 108 128)" fill="#C86F00"/>
<rect x="69" y="128" width="35" height="15.6098" rx="7.80488" transform="rotate(180 69 128)" fill="#C86F00"/>
<rect x="64" y="109.269" width="34" height="15.6098" rx="7.80488" transform="rotate(180 64 109.269)" fill="#C86F00"/>
<rect y="18.7324" width="35" height="15.6098" rx="7.80488" fill="#FFAB27"/>
<rect y="37.4639" width="35" height="15.6098" rx="7.80488" fill="#E18200"/>
</g>
<path d="M207.536 102.344C203.131 102.344 198.8 101.971 194.544 101.224C190.363 100.552 186.555 99.5067 183.12 98.088C179.76 96.5947 177.072 94.6907 175.056 92.376C173.04 90.0613 172.032 87.2987 172.032 84.088C172.032 83.7893 172.032 83.4907 172.032 83.192C172.107 82.8933 172.181 82.5947 172.256 82.296H193.536C193.461 82.52 193.424 82.744 193.424 82.968C193.424 83.1173 193.424 83.2667 193.424 83.416C193.424 84.984 194.096 86.2533 195.44 87.224C196.784 88.1947 198.501 88.904 200.592 89.352C202.757 89.8 205.109 90.024 207.648 90.024C209.739 90.024 211.941 89.912 214.256 89.688C216.645 89.3893 218.624 88.8667 220.192 88.12C221.835 87.3733 222.656 86.216 222.656 84.648C222.656 82.9307 221.573 81.736 219.408 81.064C217.317 80.392 214.48 79.8693 210.896 79.496C207.387 79.048 203.392 78.5253 198.912 77.928C195.552 77.48 192.379 76.8827 189.392 76.136C186.405 75.3147 183.755 74.232 181.44 72.888C179.125 71.4693 177.296 69.7147 175.952 67.624C174.683 65.4587 174.048 62.8453 174.048 59.784C174.048 56.2 174.907 53.176 176.624 50.712C178.416 48.248 180.88 46.2693 184.016 44.776C187.152 43.2827 190.811 42.2 194.992 41.528C199.173 40.856 203.691 40.52 208.544 40.52C212.8 40.52 216.869 40.856 220.752 41.528C224.709 42.2 228.219 43.2453 231.28 44.664C234.416 46.008 236.88 47.7627 238.672 49.928C240.464 52.0187 241.36 54.52 241.36 57.432C241.36 57.7307 241.36 58.0293 241.36 58.328C241.36 58.6267 241.323 58.888 241.248 59.112H220.08V58.328C220.08 57.0587 219.483 56.0507 218.288 55.304C217.168 54.4827 215.712 53.8853 213.92 53.512C212.203 53.1387 210.336 52.952 208.32 52.952C207.499 52.952 206.341 52.9893 204.848 53.064C203.355 53.064 201.824 53.2133 200.256 53.512C198.688 53.8107 197.344 54.2587 196.224 54.856C195.179 55.4533 194.656 56.312 194.656 57.432C194.656 58.8507 195.552 59.896 197.344 60.568C199.211 61.1653 201.637 61.6133 204.624 61.912C207.685 62.2107 210.971 62.584 214.48 63.032C218.064 63.4053 221.573 63.928 225.008 64.6C228.517 65.272 231.616 66.28 234.304 67.624C237.067 68.8933 239.232 70.6853 240.8 73C242.443 75.3147 243.264 78.3013 243.264 81.96C243.264 85.8427 242.368 89.0907 240.576 91.704C238.859 94.3173 236.395 96.408 233.184 97.976C229.973 99.544 226.165 100.664 221.76 101.336C217.429 102.008 212.688 102.344 207.536 102.344ZM275.852 102.344C267.34 102.344 260.918 100.291 256.588 96.184C252.257 92.0027 250.092 85.8053 250.092 77.592V41.864H270.7V74.68C270.7 76.696 270.998 78.488 271.596 80.056C272.193 81.624 273.014 82.9307 274.06 83.976C275.18 84.9467 276.524 85.6933 278.092 86.216C279.734 86.664 281.564 86.888 283.58 86.888C286.566 86.888 289.254 86.2907 291.644 85.096C294.108 83.9013 296.049 82.2587 297.468 80.168C298.886 78.0027 299.596 75.5387 299.596 72.776V41.864H320.316V101H303.628L302.172 91.144H301.164C299.073 93.9067 296.646 96.1093 293.884 97.752C291.121 99.32 288.209 100.477 285.148 101.224C282.086 101.971 278.988 102.344 275.852 102.344ZM330.382 101V41.864H347.182L348.526 51.944H349.534C350.654 49.5547 352.11 47.5013 353.902 45.784C355.769 44.0667 357.86 42.76 360.174 41.864C362.489 40.968 364.953 40.52 367.566 40.52C369.06 40.52 370.478 40.632 371.822 40.856C373.241 41.0053 374.548 41.3413 375.742 41.864V58.104H365.886C363.273 58.104 361.033 58.552 359.166 59.448C357.3 60.2693 355.769 61.4267 354.574 62.92C353.38 64.3387 352.484 65.9813 351.886 67.848C351.364 69.64 351.102 71.5813 351.102 73.672V101H330.382ZM415.482 102.344C407.418 102.344 400.4 101.261 394.426 99.096C388.453 96.9307 383.786 93.5707 380.426 89.016C377.141 84.3867 375.498 78.5253 375.498 71.432C375.498 64.5627 377.104 58.8507 380.314 54.296C383.6 49.6667 388.154 46.232 393.978 43.992C399.877 41.6773 406.746 40.52 414.586 40.52C422.8 40.52 429.781 41.64 435.53 43.88C441.354 46.12 445.797 49.48 448.858 53.96C451.92 58.44 453.45 64.04 453.45 70.76V75.576H397.226C397.376 78.712 398.197 81.288 399.69 83.304C401.184 85.32 403.274 86.8133 405.962 87.784C408.725 88.68 411.973 89.128 415.706 89.128C417.722 89.128 419.664 88.9413 421.53 88.568C423.397 88.12 425.077 87.5227 426.57 86.776C428.138 86.0293 429.37 85.096 430.266 83.976C431.237 82.856 431.797 81.624 431.946 80.28H453.226C453.226 83.64 452.293 86.7013 450.426 89.464C448.56 92.152 445.946 94.4667 442.586 96.408C439.226 98.3493 435.232 99.8427 430.602 100.888C425.973 101.859 420.933 102.344 415.482 102.344ZM397.226 64.6H431.386C431.386 62.9573 430.976 61.464 430.154 60.12C429.408 58.776 428.288 57.656 426.794 56.76C425.376 55.7893 423.658 55.0427 421.642 54.52C419.701 53.9973 417.573 53.736 415.258 53.736C411.749 53.736 408.688 54.184 406.074 55.08C403.536 55.976 401.52 57.2453 400.026 58.888C398.533 60.5307 397.6 62.4347 397.226 64.6Z" fill="black"/>
<defs>
<filter id="filter0_iii_3160_58826" x="0" y="-0.999555" width="128" height="129.999" filterUnits="userSpaceOnUse" color-interpolation-filters="sRGB">
<feFlood flood-opacity="0" result="BackgroundImageFix"/>
<feBlend mode="normal" in="SourceGraphic" in2="BackgroundImageFix" result="shape"/>
<feColorMatrix in="SourceAlpha" type="matrix" values="0 0 0 0 0 0 0 0 0 0 0 0 0 0 0 0 0 0 127 0" result="hardAlpha"/>
<feOffset dy="0.999555"/>
<feGaussianBlur stdDeviation="3.13725"/>
<feComposite in2="hardAlpha" operator="arithmetic" k2="-1" k3="1"/>
<feColorMatrix type="matrix" values="0 0 0 0 1 0 0 0 0 0.7 0 0 0 0 0.4 0 0 0 1 0"/>
<feBlend mode="normal" in2="shape" result="effect1_innerShadow_3160_58826"/>
<feColorMatrix in="SourceAlpha" type="matrix" values="0 0 0 0 0 0 0 0 0 0 0 0 0 0 0 0 0 0 127 0" result="hardAlpha"/>
<feOffset dy="-0.999555"/>
<feGaussianBlur stdDeviation="0.499778"/>
<feComposite in2="hardAlpha" operator="arithmetic" k2="-1" k3="1"/>
<feColorMatrix type="matrix" values="0 0 0 0 0 0 0 0 0 0 0 0 0 0 0 0 0 0 0.05 0"/>
<feBlend mode="normal" in2="effect1_innerShadow_3160_58826" result="effect2_innerShadow_3160_58826"/>
<feColorMatrix in="SourceAlpha" type="matrix" values="0 0 0 0 0 0 0 0 0 0 0 0 0 0 0 0 0 0 127 0" result="hardAlpha"/>
<feOffset dy="0.999555"/>
<feGaussianBlur stdDeviation="0.499778"/>
<feComposite in2="hardAlpha" operator="arithmetic" k2="-1" k3="1"/>
<feColorMatrix type="matrix" values="0 0 0 0 1 0 0 0 0 1 0 0 0 0 1 0 0 0 0.05 0"/>
<feBlend mode="normal" in2="effect2_innerShadow_3160_58826" result="effect3_innerShadow_3160_58826"/>
</filter>
</defs>
</svg>
