<svg width="195" height="26" viewBox="0 0 195 26" fill="none" xmlns="http://www.w3.org/2000/svg">
<path d="M151.917 24.4788C151.917 22.8798 151.917 21.2809 151.917 19.682C151.917 18.083 151.917 16.4841 151.917 14.8851C151.917 13.2637 151.917 11.6535 151.917 10.0545C151.917 8.95103 151.917 7.85879 151.917 6.77781C151.917 5.69684 151.917 4.61586 151.917 3.53489H163.605C163.605 5.02123 163.605 6.50757 163.605 7.99391C163.605 9.45773 163.605 10.9328 163.605 12.4192C163.605 14.4235 163.605 16.439 163.605 18.4659C163.605 20.4702 163.605 22.4745 163.605 24.4788H151.917ZM167.389 24.4788C167.389 22.7222 167.389 20.9431 167.389 19.1415C167.389 17.3398 167.389 15.5607 167.389 13.8042C167.389 13.1511 167.22 12.6894 166.882 12.4192C166.567 12.1489 166.184 12.0025 165.733 11.98C165.283 11.9575 164.866 12.0138 164.483 12.1489C164.123 12.284 163.898 12.4192 163.808 12.5543L166.51 3.87269C168.154 3.15204 169.933 2.79172 171.848 2.79172C172.793 2.79172 173.694 2.90432 174.55 3.12952C175.406 3.35473 176.172 3.70379 176.847 4.17672C177.545 4.64965 178.086 5.28021 178.469 6.06843C178.874 6.83412 179.077 7.75745 179.077 8.83842C179.077 9.49151 179.077 10.1559 179.077 10.8315C179.077 11.5071 179.077 12.1714 179.077 12.8245C179.077 13.1398 179.077 13.4664 179.077 13.8042C179.077 14.1194 179.077 14.4347 179.077 14.75C179.077 15.0653 179.077 15.3918 179.077 15.7296C179.077 17.1709 179.077 18.6235 179.077 20.0873C179.077 21.5511 179.077 23.015 179.077 24.4788H167.389ZM182.657 24.4788C182.657 22.7222 182.657 20.9431 182.657 19.1415C182.657 17.3398 182.657 15.5607 182.657 13.8042C182.657 13.1511 182.488 12.6894 182.151 12.4192C181.835 12.1489 181.453 12.0025 181.002 11.98C180.552 11.9575 180.135 12.0138 179.752 12.1489C179.392 12.284 179.167 12.4192 179.077 12.5543L181.441 3.87269C182.252 3.51237 183.119 3.24212 184.042 3.06196C184.988 2.8818 185.923 2.79172 186.846 2.79172C188.152 2.79172 189.368 2.9944 190.494 3.39977C191.643 3.80513 192.566 4.44696 193.264 5.32525C193.985 6.20355 194.345 7.3746 194.345 8.83842V24.4788H182.657Z" fill="black"/>
<path d="M124.773 4.75097C126.417 4.00779 128.196 3.45605 130.11 3.09572C132.047 2.71288 133.984 2.52145 135.921 2.52145C137.812 2.52145 139.637 2.70162 141.393 3.06194C143.15 3.42227 144.715 3.97401 146.089 4.71718C147.485 5.46036 148.588 6.38369 149.399 7.48718C150.21 8.59068 150.615 9.8856 150.615 11.3719C150.615 13.5564 150.615 15.7409 150.615 17.9254C150.615 20.1098 150.615 22.2943 150.615 24.4788C149.827 24.4788 149.039 24.4788 148.251 24.4788C147.462 24.4788 146.674 24.4788 145.886 24.4788C145.098 24.4788 144.31 24.4788 143.521 24.4788C142.733 24.4788 141.945 24.4788 141.157 24.4788C140.369 24.4788 139.58 24.4788 138.792 24.4788C138.792 23.2852 138.792 22.1029 138.792 20.9318C138.792 19.7382 138.792 18.5559 138.792 17.3849C138.792 16.9795 138.657 16.653 138.387 16.4052C138.116 16.1575 137.79 15.9886 137.407 15.8985C137.024 15.7859 136.641 15.7296 136.259 15.7296C135.403 15.7296 134.75 15.8985 134.299 16.2363C133.871 16.5741 133.657 16.957 133.657 17.3849C133.657 17.8128 133.883 18.2069 134.333 18.5672C134.783 18.905 135.425 19.0739 136.259 19.0739C136.664 19.0739 137.126 18.9951 137.644 18.8374C138.162 18.6798 138.556 18.2744 138.826 17.6213C138.353 18.7248 137.869 19.8283 137.373 20.9318C136.9 22.0353 136.427 23.1388 135.955 24.2423C135.144 24.6477 134.288 24.9292 133.387 25.0868C132.509 25.267 131.631 25.3571 130.752 25.3571C129.694 25.3571 128.669 25.2107 127.678 24.9179C126.71 24.6477 125.832 24.2423 125.043 23.7018C124.278 23.1613 123.67 22.4857 123.219 21.675C122.769 20.8643 122.544 19.9184 122.544 18.8374C122.544 18.1843 122.656 17.5425 122.881 16.9119C123.107 16.2814 123.444 15.6846 123.895 15.1216C124.345 14.5586 124.908 14.0631 125.584 13.6352C126.282 13.2073 127.104 12.8808 128.05 12.6556C128.996 12.4079 130.077 12.284 131.293 12.284C132.081 12.284 132.847 12.3516 133.59 12.4867C134.333 12.5993 135.031 12.7795 135.684 13.0272C136.36 13.2749 136.957 13.5789 137.475 13.9393C138.015 14.2996 138.454 14.7049 138.792 15.1554C138.792 15.1103 138.792 15.0765 138.792 15.054C138.792 15.009 138.792 14.9752 138.792 14.9527C138.792 14.9076 138.792 14.8739 138.792 14.8513C138.792 14.1532 138.612 13.5564 138.252 13.061C137.914 12.543 137.441 12.1264 136.833 11.8111C136.247 11.4733 135.56 11.2256 134.772 11.0679C134.007 10.9103 133.196 10.8315 132.34 10.8315C131.011 10.8315 129.671 11.0004 128.32 11.3382C126.969 11.676 125.787 12.1714 124.773 12.8245V4.75097Z" fill="black"/>
<path d="M109.428 24.4788V14.9865H121.758V24.4788H109.428Z" fill="black"/>
<path d="M93.9429 16.8444C95.1365 16.8444 96.0599 16.6304 96.7129 16.2026C97.366 15.7747 97.7038 15.1891 97.7264 14.446L108.165 17.8578C107.759 19.2766 106.892 20.5715 105.563 21.7426C104.257 22.8911 102.602 23.8032 100.598 24.4788C98.5934 25.1544 96.3526 25.4922 93.8754 25.4922C91.7585 25.4922 89.7767 25.2557 87.93 24.7828C86.1059 24.3099 84.4957 23.6005 83.0994 22.6546C81.7257 21.6863 80.6447 20.4814 79.8565 19.0401C79.0683 17.5988 78.6742 15.921 78.6742 14.0068C78.6742 12.0926 79.0683 10.4148 79.8565 8.97353C80.6447 7.53223 81.7257 6.33865 83.0994 5.3928C84.4957 4.42442 86.1171 3.70377 87.9638 3.23084C89.8105 2.75792 91.781 2.52145 93.8754 2.52145C96.0148 2.52145 97.9741 2.75792 99.7532 3.23084C101.555 3.70377 103.097 4.43568 104.381 5.42658C105.687 6.39495 106.689 7.63357 107.388 9.14243C108.108 10.6288 108.469 12.3966 108.469 14.446H90.0582C90.0582 14.446 90.0469 14.446 90.0244 14.446C90.0244 14.446 90.0244 14.4572 90.0244 14.4797C90.0244 14.8176 90.1145 15.1328 90.2946 15.4256C90.4748 15.7184 90.7225 15.9773 91.0378 16.2026C91.3756 16.4052 91.781 16.5629 92.2539 16.6755C92.7494 16.7881 93.3124 16.8444 93.9429 16.8444ZM93.8754 11.0679C92.7719 11.0679 91.8598 11.2706 91.1392 11.676C90.4185 12.0588 90.0582 12.6106 90.0582 13.3312C90.0582 13.3537 90.0582 13.3763 90.0582 13.3988C90.0807 13.3988 90.092 13.3988 90.092 13.3988H97.625C97.6475 13.3988 97.6588 13.3988 97.6588 13.3988C97.6588 13.3763 97.6588 13.3537 97.6588 13.3312C97.6588 12.9709 97.5575 12.6556 97.3548 12.3854C97.1746 12.0926 96.9156 11.8561 96.5778 11.676C96.24 11.4733 95.8347 11.3269 95.3617 11.2368C94.9113 11.1242 94.4159 11.0679 93.8754 11.0679Z" fill="black"/>
<path d="M67.443 3.5349C67.443 4.88612 67.443 6.2486 67.443 7.62234C67.443 8.97355 67.443 10.336 67.443 11.7098C67.443 13.061 67.443 14.4235 67.443 15.7972C67.443 17.2385 67.443 18.6798 67.443 20.1211C67.443 21.5624 67.443 23.015 67.443 24.4788H55.7549C55.7549 22.2493 55.7549 20.0198 55.7549 17.7903C55.7549 15.5607 55.7549 13.3312 55.7549 11.1017C55.7549 9.84058 55.7549 8.57945 55.7549 7.31831C55.7549 6.05717 55.7549 4.79603 55.7549 3.5349H67.443ZM67.4092 16.439L69.2333 7.35209C69.436 6.38372 69.8301 5.58425 70.4156 4.95368C71.0237 4.30059 71.7331 3.80514 72.5438 3.46733C73.3545 3.12953 74.1878 2.92685 75.0436 2.85929C75.8993 2.7692 76.6876 2.80298 77.4082 2.96063C78.1289 3.09575 78.7031 3.33221 79.131 3.67002L76.5637 16.2364C75.9106 15.6959 75.1111 15.3243 74.1653 15.1216C73.2419 14.9189 72.3074 14.8514 71.3615 14.9189C70.4156 14.964 69.5824 15.1216 68.8617 15.3918C68.1411 15.6621 67.6569 16.0112 67.4092 16.439Z" fill="black"/>
<path d="M54.4074 0.534866C54.4074 2.04373 54.4074 6.56385 54.4074 8.09523C54.4074 9.62661 54.4074 11.158 54.4074 12.6894C54.4074 13.9956 54.4074 15.313 54.4074 16.6417C54.4074 17.9479 54.4074 19.2541 54.4074 20.5602C54.4074 21.8664 54.4074 23.1726 54.4074 24.4788H42.7193C42.7193 23.5329 42.7193 22.5758 42.7193 21.6074C42.7193 20.639 42.7193 19.6707 42.7193 18.7023C42.7193 17.7114 42.7193 16.7543 42.7193 15.831C42.7193 13.7366 42.7193 11.6872 42.7193 9.68291C42.7193 7.65608 42.7193 2.60674 42.7193 0.534866H54.4074ZM39.1386 2.53487C39.1386 3.72844 39.1386 5.93328 39.1386 7.14938C39.1386 8.34295 39.1386 9.53653 39.1386 10.7301C39.1386 11.9237 39.1386 13.1285 39.1386 14.3446C39.1386 14.8401 39.2174 15.2454 39.3751 15.5607C39.5552 15.8535 39.7804 16.0674 40.0507 16.2025C40.3434 16.3151 40.6475 16.3715 40.9627 16.3715C41.278 16.3715 41.5933 16.3151 41.9086 16.2025C42.2464 16.0899 42.5167 15.9548 42.7193 15.7972L40.0169 24.141C39.3863 24.4562 38.6094 24.7152 37.686 24.9179C36.7852 25.1206 35.8394 25.2219 34.8485 25.2219C33.9477 25.2219 33.0581 25.1093 32.1798 24.8841C31.3015 24.6814 30.5021 24.3324 29.7814 23.8369C29.0833 23.3415 28.5203 22.6884 28.0924 21.8777C27.6645 21.0669 27.4506 20.0535 27.4506 18.8374C27.4506 17.216 27.4506 15.5945 27.4506 13.973C27.4506 12.3516 27.4506 10.7301 27.4506 9.10865C27.4506 8.18531 27.4506 7.26198 27.4506 6.33865C27.4506 5.39279 27.4506 3.4582 27.4506 2.53487H39.1386Z" fill="black"/>
<path d="M0.985672 10.2234C0.985672 8.93975 1.346 7.82499 2.06665 6.87914C2.80982 5.93329 3.81197 5.14508 5.07311 4.51451C6.33425 3.86142 7.76429 3.37723 9.36323 3.06195C10.9622 2.74666 12.6287 2.58902 14.3627 2.58902C16.5022 2.58902 18.484 2.78044 20.3081 3.16329C22.1548 3.54613 23.8213 4.05284 25.3076 4.68341V12.5205C24.6771 12.0476 23.8438 11.6422 22.8079 11.3044C21.7945 10.9666 20.7135 10.7076 19.5649 10.5274C18.4389 10.3473 17.3692 10.2572 16.3558 10.2572C15.6802 10.2572 15.0609 10.3022 14.4979 10.3923C13.9574 10.4599 13.5182 10.5725 13.1804 10.7301C12.8651 10.8878 12.7075 11.0904 12.7075 11.3382C12.7075 11.4733 12.7525 11.5746 12.8426 11.6422C12.9552 11.7097 13.1129 11.7548 13.3156 11.7773C13.5182 11.7998 13.7772 11.8111 14.0925 11.8111C14.6105 11.8111 15.0721 11.8111 15.4775 11.8111C15.8829 11.8111 16.3333 11.8111 16.8287 11.8111C17.9547 11.8111 19.0808 11.8899 20.2068 12.0476C21.3553 12.1827 22.3912 12.4642 23.3146 12.8921C24.2604 13.32 25.0149 13.9393 25.5779 14.75C26.1409 15.5382 26.4224 16.5854 26.4224 17.8916C26.4224 19.2653 26.0395 20.4364 25.2738 21.4047C24.5307 22.3506 23.506 23.1276 22.1998 23.7356C20.9162 24.3211 19.4636 24.749 17.8421 25.0193C16.2432 25.2895 14.5767 25.4246 12.8426 25.4246C10.7933 25.4246 8.76644 25.2332 6.76214 24.8504C4.78035 24.4675 3.08006 23.9045 1.66128 23.1613V14.9189C2.22429 15.5269 3.02376 16.0337 4.0597 16.439C5.11815 16.8219 6.25543 17.1146 7.47153 17.3173C8.71014 17.4975 9.86994 17.5876 10.9509 17.5876C11.649 17.5876 12.2796 17.5538 12.8426 17.4862C13.4056 17.3961 13.8448 17.2723 14.1601 17.1146C14.4979 16.9345 14.6668 16.7093 14.6668 16.439C14.6668 16.3264 14.633 16.2476 14.5654 16.2026C14.4979 16.1575 14.3853 16.1237 14.2276 16.1012C14.0925 16.0787 13.9011 16.0674 13.6534 16.0674C13.3156 16.0674 12.9665 16.0674 12.6062 16.0674C12.2458 16.0674 11.9193 16.0674 11.6265 16.0674C10.8383 16.0674 9.96002 16.0449 8.99165 15.9999C8.04579 15.9323 7.09994 15.8084 6.15409 15.6283C5.20823 15.4256 4.3412 15.1216 3.55299 14.7162C2.7873 14.2883 2.16799 13.7141 1.69506 12.9934C1.22214 12.2502 0.985672 11.3269 0.985672 10.2234Z" fill="black"/>
</svg>
