<svg width="230" height="240" viewBox="0 0 230 240" fill="none" xmlns="http://www.w3.org/2000/svg">
<g clip-path="url(#clip0_1_2022)">
<g filter="url(#filter0_f_1_2022)">
<rect x="111.25" y="112.683" width="45" height="14.6341" rx="7.31707" fill="#E18200"/>
<rect x="73.75" y="112.683" width="33.75" height="14.6341" rx="7.31707" fill="#E18200"/>
<rect x="143.125" y="130.245" width="31.875" height="14.6341" rx="7.31707" fill="#E28100"/>
<rect x="143.125" y="147.805" width="31.875" height="14.6341" rx="7.31707" fill="#C67000"/>
<rect x="73.75" y="60" width="32.8125" height="14.6341" rx="7.31707" fill="#FFAB27"/>
<rect x="110.312" y="60" width="32.8125" height="14.6341" rx="7.31707" fill="#FFAB27"/>
<rect x="114.062" y="77.5615" width="32.8125" height="14.6341" rx="7.31707" fill="#FFAB27"/>
<rect x="156.25" y="180" width="32.8125" height="14.6341" rx="7.31707" transform="rotate(180 156.25 180)" fill="#C86F00"/>
<rect x="119.688" y="180" width="32.8125" height="14.6341" rx="7.31707" transform="rotate(180 119.688 180)" fill="#C86F00"/>
<rect x="115" y="162.44" width="31.875" height="14.6341" rx="7.31707" transform="rotate(180 115 162.44)" fill="#C86F00"/>
<rect x="55" y="77.5615" width="32.8125" height="14.6341" rx="7.31707" fill="#FFAB27"/>
<rect x="55" y="95.1226" width="32.8125" height="14.6341" rx="7.31707" fill="#E18200"/>
</g>
<g clip-path="url(#clip1_1_2022)">
<g filter="url(#filter1_iii_1_2022)">
<path d="M50.9614 115.389C54.408 62.8038 66.4173 52.2719 119.003 55.7185C171.588 59.1652 182.12 71.1745 178.673 123.76C175.227 176.346 163.218 186.877 110.632 183.431C58.0466 179.984 47.5147 167.975 50.9614 115.389Z" fill="url(#paint0_linear_1_2022)"/>
<path d="M50.9614 115.39C54.408 62.8043 66.4173 52.2724 119.003 55.719C171.588 59.1657 182.12 71.175 178.673 123.761C175.227 176.346 163.218 186.878 110.632 183.431C58.0466 179.985 47.5147 167.975 50.9614 115.39Z" fill="black" fill-opacity="0.7"/>
</g>
<path d="M118.829 58.3813C131.914 59.239 142.202 60.6206 150.248 62.9705C158.265 65.3116 163.895 68.567 167.846 73.0718C171.796 77.5765 174.289 83.5839 175.564 91.8374C176.843 100.122 176.87 110.502 176.013 123.587C175.155 136.673 173.773 146.96 171.423 155.007C169.082 163.023 165.827 168.654 161.322 172.604C156.817 176.555 150.81 179.047 142.557 180.322C134.272 181.602 123.892 181.629 110.807 180.771C97.7213 179.913 87.4337 178.532 79.3874 176.182C71.3708 173.841 65.7402 170.585 61.7897 166.081C57.8391 161.576 55.3465 155.569 54.0717 147.315C52.7923 139.031 52.7652 128.651 53.6229 115.565C54.4806 102.48 55.8622 92.1921 58.2121 84.1458C60.5532 76.1292 63.8086 70.4986 68.3134 66.5481C72.8181 62.5975 78.8254 60.1049 87.079 58.8302C95.3632 57.5507 105.743 57.5236 118.829 58.3813Z" stroke="url(#paint1_linear_1_2022)" stroke-opacity="0.05" stroke-width="5.33333"/>
<path d="M118.829 58.3813C131.914 59.239 142.202 60.6206 150.248 62.9705C158.265 65.3116 163.895 68.567 167.846 73.0718C171.796 77.5765 174.289 83.5839 175.564 91.8374C176.843 100.122 176.87 110.502 176.013 123.587C175.155 136.673 173.773 146.96 171.423 155.007C169.082 163.023 165.827 168.654 161.322 172.604C156.817 176.555 150.81 179.047 142.557 180.322C134.272 181.602 123.892 181.629 110.807 180.771C97.7213 179.913 87.4337 178.532 79.3874 176.182C71.3708 173.841 65.7402 170.585 61.7897 166.081C57.8391 161.576 55.3465 155.569 54.0717 147.315C52.7923 139.031 52.7652 128.651 53.6229 115.565C54.4806 102.48 55.8622 92.1921 58.2121 84.1458C60.5532 76.1292 63.8086 70.4986 68.3134 66.5481C72.8181 62.5975 78.8254 60.1049 87.079 58.8302C95.3632 57.5507 105.743 57.5236 118.829 58.3813Z" stroke="url(#paint2_linear_1_2022)" stroke-opacity="0.05" stroke-width="5.33333"/>
<path d="M118.829 58.3813C131.914 59.239 142.202 60.6206 150.248 62.9705C158.265 65.3116 163.895 68.567 167.846 73.0718C171.796 77.5765 174.289 83.5839 175.564 91.8374C176.843 100.122 176.87 110.502 176.013 123.587C175.155 136.673 173.773 146.96 171.423 155.007C169.082 163.023 165.827 168.654 161.322 172.604C156.817 176.555 150.81 179.047 142.557 180.322C134.272 181.602 123.892 181.629 110.807 180.771C97.7213 179.913 87.4337 178.532 79.3874 176.182C71.3708 173.841 65.7402 170.585 61.7897 166.081C57.8391 161.576 55.3465 155.569 54.0717 147.315C52.7923 139.031 52.7652 128.651 53.6229 115.565C54.4806 102.48 55.8622 92.1921 58.2121 84.1458C60.5532 76.1292 63.8086 70.4986 68.3134 66.5481C72.8181 62.5975 78.8254 60.1049 87.079 58.8302C95.3632 57.5507 105.743 57.5236 118.829 58.3813Z" stroke="url(#paint3_linear_1_2022)" stroke-width="5.33333"/>
<g clip-path="url(#clip2_1_2022)">
<g opacity="0.23" filter="url(#filter2_f_1_2022)">
<path d="M75.8598 123.485L88.4612 130.947L121.602 151.249L157.357 160.685L128.466 174.746L69.3789 164.713L75.8598 123.485Z" fill="#F29B43"/>
</g>
<g opacity="0.1" filter="url(#filter3_f_1_2022)">
<path d="M50.5693 155.577L116.073 153.355L136.905 174.476L120.163 180.596L76.4112 175.983L50.5693 155.577Z" fill="#F29B44"/>
</g>
<g opacity="0.23" filter="url(#filter4_f_1_2022)">
<path d="M79.4462 66.3617L144.952 64.6798L165.648 85.9735L148.871 91.958L105.155 86.9824L79.4462 66.3617Z" fill="#EEAA22"/>
</g>
<g opacity="0.1" filter="url(#filter5_f_1_2022)">
<path d="M90.8869 63.345L156.39 61.1251L177.222 82.2466L160.481 88.3666L116.729 83.7535L90.8869 63.345Z" fill="#EEAA22"/>
</g>
</g>
<g filter="url(#filter6_iii_1_2022)">
<rect x="112.651" y="114.567" width="29.8634" height="9.7117" rx="4.85585" transform="rotate(3.75 112.651 114.567)" fill="#E18200"/>
<rect x="87.8196" y="112.939" width="22.3976" height="9.7117" rx="4.85585" transform="rotate(3.75 87.8196 112.939)" fill="#E18200"/>
<rect x="132.999" y="127.579" width="21.1533" height="9.7117" rx="4.85585" transform="rotate(3.75 132.999 127.579)" fill="#E28100"/>
<rect x="132.236" y="139.208" width="21.1533" height="9.7117" rx="4.85585" transform="rotate(3.75 132.236 139.208)" fill="#C67000"/>
<rect x="90.1055" y="78.0527" width="21.7754" height="9.7117" rx="4.85585" transform="rotate(3.75 90.1055 78.0527)" fill="#FFAB27"/>
<rect x="114.318" y="79.6396" width="21.7754" height="9.7117" rx="4.85585" transform="rotate(3.75 114.318 79.6396)" fill="#FFAB27"/>
<rect x="116.039" y="91.4312" width="21.7754" height="9.7117" rx="4.85585" transform="rotate(3.75 116.039 91.4312)" fill="#FFAB27"/>
<rect x="139.53" y="161.098" width="21.7754" height="9.7117" rx="4.85585" transform="rotate(-176.25 139.53 161.098)" fill="#C86F00"/>
<rect x="115.318" y="159.511" width="21.7754" height="9.7117" rx="4.85585" transform="rotate(-176.25 115.318 159.511)" fill="#C86F00"/>
<rect x="112.975" y="147.679" width="21.1533" height="9.7117" rx="4.85585" transform="rotate(-176.25 112.975 147.679)" fill="#C86F00"/>
<rect x="76.9265" y="88.8672" width="21.7754" height="9.7117" rx="4.85585" transform="rotate(3.75 76.9265 88.8672)" fill="#FFAB27"/>
<rect x="76.1653" y="100.497" width="21.7754" height="9.7117" rx="4.85585" transform="rotate(3.75 76.1653 100.497)" fill="#E18200"/>
</g>
</g>
</g>
<defs>
<filter id="filter0_f_1_2022" x="-17" y="-12" width="264" height="264" filterUnits="userSpaceOnUse" color-interpolation-filters="sRGB">
<feFlood flood-opacity="0" result="BackgroundImageFix"/>
<feBlend mode="normal" in="SourceGraphic" in2="BackgroundImageFix" result="shape"/>
<feGaussianBlur stdDeviation="36" result="effect1_foregroundBlur_1_2022"/>
</filter>
<filter id="filter1_iii_1_2022" x="50.3687" y="48.2993" width="128.897" height="142.551" filterUnits="userSpaceOnUse" color-interpolation-filters="sRGB">
<feFlood flood-opacity="0" result="BackgroundImageFix"/>
<feBlend mode="normal" in="SourceGraphic" in2="BackgroundImageFix" result="shape"/>
<feColorMatrix in="SourceAlpha" type="matrix" values="0 0 0 0 0 0 0 0 0 0 0 0 0 0 0 0 0 0 127 0" result="hardAlpha"/>
<feOffset dy="2.43712"/>
<feGaussianBlur stdDeviation="3.04811"/>
<feComposite in2="hardAlpha" operator="arithmetic" k2="-1" k3="1"/>
<feColorMatrix type="matrix" values="0 0 0 0 0.219608 0 0 0 0 0.206536 0 0 0 0 0.188235 0 0 0 1 0"/>
<feBlend mode="normal" in2="shape" result="effect1_innerShadow_1_2022"/>
<feColorMatrix in="SourceAlpha" type="matrix" values="0 0 0 0 0 0 0 0 0 0 0 0 0 0 0 0 0 0 127 0" result="hardAlpha"/>
<feOffset dy="6.82667"/>
<feGaussianBlur stdDeviation="5.12"/>
<feComposite in2="hardAlpha" operator="arithmetic" k2="-1" k3="1"/>
<feColorMatrix type="matrix" values="0 0 0 0 1 0 0 0 0 0.547713 0 0 0 0 0.321569 0 0 0 0.6 0"/>
<feBlend mode="normal" in2="effect1_innerShadow_1_2022" result="effect2_innerShadow_1_2022"/>
<feColorMatrix in="SourceAlpha" type="matrix" values="0 0 0 0 0 0 0 0 0 0 0 0 0 0 0 0 0 0 127 0" result="hardAlpha"/>
<feOffset dy="-6.82667"/>
<feGaussianBlur stdDeviation="3.41333"/>
<feComposite in2="hardAlpha" operator="arithmetic" k2="-1" k3="1"/>
<feColorMatrix type="matrix" values="0 0 0 0 0.933333 0 0 0 0 0.547058 0 0 0 0 0.160784 0 0 0 0.5 0"/>
<feBlend mode="normal" in2="effect2_innerShadow_1_2022" result="effect3_innerShadow_1_2022"/>
</filter>
<filter id="filter2_f_1_2022" x="25.0056" y="79.112" width="176.725" height="140.007" filterUnits="userSpaceOnUse" color-interpolation-filters="sRGB">
<feFlood flood-opacity="0" result="BackgroundImageFix"/>
<feBlend mode="normal" in="SourceGraphic" in2="BackgroundImageFix" result="shape"/>
<feGaussianBlur stdDeviation="22.1867" result="effect1_foregroundBlur_1_2022"/>
</filter>
<filter id="filter3_f_1_2022" x="6.196" y="108.981" width="175.082" height="115.988" filterUnits="userSpaceOnUse" color-interpolation-filters="sRGB">
<feFlood flood-opacity="0" result="BackgroundImageFix"/>
<feBlend mode="normal" in="SourceGraphic" in2="BackgroundImageFix" result="shape"/>
<feGaussianBlur stdDeviation="22.1867" result="effect1_foregroundBlur_1_2022"/>
</filter>
<filter id="filter4_f_1_2022" x="35.0727" y="20.3064" width="174.949" height="116.025" filterUnits="userSpaceOnUse" color-interpolation-filters="sRGB">
<feFlood flood-opacity="0" result="BackgroundImageFix"/>
<feBlend mode="normal" in="SourceGraphic" in2="BackgroundImageFix" result="shape"/>
<feGaussianBlur stdDeviation="22.1867" result="effect1_foregroundBlur_1_2022"/>
</filter>
<filter id="filter5_f_1_2022" x="46.5136" y="16.7517" width="175.082" height="115.988" filterUnits="userSpaceOnUse" color-interpolation-filters="sRGB">
<feFlood flood-opacity="0" result="BackgroundImageFix"/>
<feBlend mode="normal" in="SourceGraphic" in2="BackgroundImageFix" result="shape"/>
<feGaussianBlur stdDeviation="22.1867" result="effect1_foregroundBlur_1_2022"/>
</filter>
<filter id="filter6_iii_1_2022" x="75.8372" y="77.7379" width="77.9626" height="83.675" filterUnits="userSpaceOnUse" color-interpolation-filters="sRGB">
<feFlood flood-opacity="0" result="BackgroundImageFix"/>
<feBlend mode="normal" in="SourceGraphic" in2="BackgroundImageFix" result="shape"/>
<feColorMatrix in="SourceAlpha" type="matrix" values="0 0 0 0 0 0 0 0 0 0 0 0 0 0 0 0 0 0 127 0" result="hardAlpha"/>
<feOffset dy="0.621946"/>
<feGaussianBlur stdDeviation="1.95207"/>
<feComposite in2="hardAlpha" operator="arithmetic" k2="-1" k3="1"/>
<feColorMatrix type="matrix" values="0 0 0 0 1 0 0 0 0 0.7 0 0 0 0 0.4 0 0 0 1 0"/>
<feBlend mode="normal" in2="shape" result="effect1_innerShadow_1_2022"/>
<feColorMatrix in="SourceAlpha" type="matrix" values="0 0 0 0 0 0 0 0 0 0 0 0 0 0 0 0 0 0 127 0" result="hardAlpha"/>
<feOffset dy="-0.621946"/>
<feGaussianBlur stdDeviation="0.310973"/>
<feComposite in2="hardAlpha" operator="arithmetic" k2="-1" k3="1"/>
<feColorMatrix type="matrix" values="0 0 0 0 0 0 0 0 0 0 0 0 0 0 0 0 0 0 0.05 0"/>
<feBlend mode="normal" in2="effect1_innerShadow_1_2022" result="effect2_innerShadow_1_2022"/>
<feColorMatrix in="SourceAlpha" type="matrix" values="0 0 0 0 0 0 0 0 0 0 0 0 0 0 0 0 0 0 127 0" result="hardAlpha"/>
<feOffset dy="0.621946"/>
<feGaussianBlur stdDeviation="0.310973"/>
<feComposite in2="hardAlpha" operator="arithmetic" k2="-1" k3="1"/>
<feColorMatrix type="matrix" values="0 0 0 0 1 0 0 0 0 1 0 0 0 0 1 0 0 0 0.05 0"/>
<feBlend mode="normal" in2="effect2_innerShadow_1_2022" result="effect3_innerShadow_1_2022"/>
</filter>
<linearGradient id="paint0_linear_1_2022" x1="153.104" y1="71.8098" x2="121.752" y2="120.52" gradientUnits="userSpaceOnUse">
<stop stop-color="#363636"/>
<stop offset="1" stop-color="#141414"/>
</linearGradient>
<linearGradient id="paint1_linear_1_2022" x1="122.591" y1="62.4783" x2="109.052" y2="161.941" gradientUnits="userSpaceOnUse">
<stop stop-color="white"/>
<stop offset="1" stop-color="white" stop-opacity="0"/>
</linearGradient>
<linearGradient id="paint2_linear_1_2022" x1="122.591" y1="62.4783" x2="109.052" y2="161.941" gradientUnits="userSpaceOnUse">
<stop stop-color="white"/>
<stop offset="1" stop-color="white" stop-opacity="0"/>
</linearGradient>
<linearGradient id="paint3_linear_1_2022" x1="123.312" y1="57.1614" x2="106.323" y2="181.991" gradientUnits="userSpaceOnUse">
<stop stop-color="#FFC552"/>
<stop offset="0.274" stop-color="#EEAC43"/>
<stop offset="0.63" stop-color="#B76F09"/>
<stop offset="1" stop-color="#F17C29"/>
</linearGradient>
<clipPath id="clip0_1_2022">
<rect width="230" height="240" fill="white"/>
</clipPath>
<clipPath id="clip1_1_2022">
<rect width="128" height="128" fill="white" transform="translate(55.2439 51.645) rotate(3.75)"/>
</clipPath>
<clipPath id="clip2_1_2022">
<rect x="57.1855" y="54.6226" width="121.587" height="121.587" rx="34.1333" transform="rotate(3.75 57.1855 54.6226)" fill="white"/>
</clipPath>
</defs>
</svg>
